# Blender 4.0.2
# www.blender.org
mtllib Egg.mtl
o Sphere
v 0.000000 0.026776 -0.012508
v 0.000000 0.018459 -0.018992
v 0.000000 0.007259 -0.023320
v 0.000000 -0.005881 -0.023869
v 0.000000 -0.016747 -0.020235
v 0.001681 0.031277 -0.004058
v 0.004787 0.026776 -0.011556
v 0.007268 0.018459 -0.017546
v 0.008924 0.007259 -0.021545
v 0.009134 -0.005881 -0.022052
v 0.007744 -0.016747 -0.018695
v 0.005174 -0.025064 -0.012492
v 0.001817 -0.029565 -0.004386
v 0.003106 0.031277 -0.003106
v 0.008845 0.026776 -0.008845
v 0.013429 0.018459 -0.013429
v 0.016490 0.007259 -0.016490
v 0.016878 -0.005881 -0.016878
v 0.014309 -0.016747 -0.014309
v 0.009561 -0.025064 -0.009561
v 0.003357 -0.029565 -0.003357
v 0.000000 0.031856 -0.000000
v 0.004058 0.031277 -0.001681
v 0.011556 0.026776 -0.004787
v 0.017546 0.018459 -0.007268
v 0.021545 0.007259 -0.008924
v 0.022052 -0.005881 -0.009134
v 0.018695 -0.016747 -0.007744
v 0.012492 -0.025064 -0.005174
v 0.004386 -0.029565 -0.001817
v 0.004392 0.031277 0.000000
v 0.012508 0.026776 0.000000
v 0.018992 0.018459 0.000000
v 0.023320 0.007259 0.000000
v 0.023869 -0.005881 0.000000
v 0.020235 -0.016747 0.000000
v 0.013521 -0.025064 0.000000
v 0.004748 -0.029565 0.000000
v 0.004058 0.031277 0.001681
v 0.011556 0.026776 0.004787
v 0.017546 0.018459 0.007268
v 0.021545 0.007259 0.008924
v 0.022052 -0.005881 0.009134
v 0.018695 -0.016747 0.007744
v 0.012492 -0.025064 0.005174
v 0.004386 -0.029565 0.001817
v 0.003106 0.031277 0.003106
v 0.008845 0.026776 0.008845
v 0.013429 0.018459 0.013429
v 0.016490 0.007259 0.016490
v 0.016878 -0.005881 0.016878
v 0.014309 -0.016747 0.014309
v 0.009561 -0.025064 0.009561
v 0.003357 -0.029565 0.003357
v 0.001681 0.031277 0.004058
v 0.004787 0.026776 0.011556
v 0.007268 0.018459 0.017546
v 0.008924 0.007259 0.021545
v 0.009134 -0.005881 0.022052
v 0.007744 -0.016747 0.018695
v 0.005174 -0.025064 0.012492
v 0.001817 -0.029565 0.004386
v -0.000000 0.031277 0.004392
v -0.000000 0.026776 0.012508
v -0.000000 0.018459 0.018992
v -0.000000 0.007259 0.023320
v -0.000000 -0.005881 0.023869
v -0.000000 -0.016747 0.020235
v -0.000000 -0.025064 0.013521
v -0.000000 -0.029565 0.004748
v -0.001681 0.031277 0.004058
v -0.004787 0.026776 0.011556
v -0.007268 0.018459 0.017546
v -0.008924 0.007259 0.021545
v -0.009134 -0.005881 0.022052
v -0.007744 -0.016747 0.018695
v -0.005174 -0.025064 0.012492
v -0.001817 -0.029565 0.004386
v -0.003106 0.031277 0.003106
v -0.008845 0.026776 0.008845
v -0.013429 0.018459 0.013429
v -0.016490 0.007259 0.016490
v -0.016878 -0.005881 0.016878
v -0.014309 -0.016747 0.014309
v -0.009561 -0.025064 0.009561
v -0.003357 -0.029565 0.003357
v 0.000000 -0.030144 0.000000
v -0.004058 0.031277 0.001681
v -0.011556 0.026776 0.004787
v -0.017546 0.018459 0.007268
v -0.021545 0.007259 0.008924
v -0.022052 -0.005881 0.009134
v -0.018695 -0.016747 0.007744
v -0.012492 -0.025064 0.005174
v -0.004386 -0.029565 0.001817
v -0.004392 0.031277 -0.000000
v -0.012508 0.026776 -0.000000
v -0.018992 0.018459 -0.000000
v -0.023320 0.007259 -0.000000
v -0.023869 -0.005881 -0.000000
v -0.020235 -0.016747 -0.000000
v -0.013521 -0.025064 -0.000000
v -0.004748 -0.029565 -0.000000
v -0.004058 0.031277 -0.001681
v -0.011556 0.026776 -0.004787
v -0.017546 0.018459 -0.007268
v -0.021545 0.007259 -0.008924
v -0.022052 -0.005881 -0.009134
v -0.018695 -0.016747 -0.007744
v -0.012492 -0.025064 -0.005174
v -0.004386 -0.029565 -0.001817
v -0.003106 0.031277 -0.003106
v -0.008845 0.026776 -0.008845
v -0.013429 0.018459 -0.013429
v -0.016490 0.007259 -0.016490
v -0.016878 -0.005881 -0.016878
v -0.014309 -0.016747 -0.014309
v -0.009561 -0.025064 -0.009561
v -0.003357 -0.029565 -0.003357
v -0.001681 0.031277 -0.004058
v -0.004787 0.026776 -0.011556
v -0.007268 0.018459 -0.017546
v -0.008924 0.007259 -0.021545
v -0.009134 -0.005881 -0.022052
v -0.007744 -0.016747 -0.018695
v -0.005174 -0.025064 -0.012492
v -0.001817 -0.029565 -0.004386
v 0.000000 0.031277 -0.004392
v 0.000000 -0.025064 -0.013521
v 0.000000 -0.029565 -0.004748
vn -0.3752 0.1965 -0.9059
vn -0.0000 0.1965 -0.9805
vn -0.0000 -0.1341 -0.9910
vn -0.3792 -0.1341 -0.9155
vn 0.3792 -0.1341 -0.9155
vn 0.3752 0.1965 -0.9059
vn -0.0000 -0.4643 -0.8857
vn 0.3389 -0.4643 -0.8182
vn 0.6199 0.7415 -0.2568
vn 0.4744 0.7415 -0.4744
vn 0.2391 0.9411 -0.2391
vn 0.3124 0.9411 -0.1294
vn 0.6263 -0.4643 -0.6263
vn 0.7007 -0.1341 -0.7007
vn -0.0000 1.0000 -0.0000
vn 0.1294 0.9411 -0.3124
vn -0.0000 0.9411 -0.3381
vn 0.1211 -0.9486 -0.2924
vn -0.0000 -0.9486 -0.3165
vn -0.0000 -0.7568 -0.6536
vn 0.2501 -0.7568 -0.6039
vn 0.2238 -0.9486 -0.2238
vn 0.4622 -0.7568 -0.4622
vn 0.2568 0.7415 -0.6199
vn -0.0000 0.7415 -0.6710
vn 0.6933 0.1965 -0.6933
vn 0.6202 0.4804 -0.6202
vn 0.3356 0.4804 -0.8103
vn 0.9155 -0.1341 -0.3792
vn 0.9059 0.1965 -0.3752
vn 0.8103 0.4804 -0.3356
vn 0.9910 -0.1341 -0.0000
vn 0.9805 0.1965 -0.0000
vn 0.8182 -0.4643 -0.3389
vn -0.0000 -1.0000 -0.0000
vn 0.8771 0.4804 -0.0000
vn 0.6710 0.7415 -0.0000
vn 0.3381 0.9411 -0.0000
vn 0.2924 -0.9486 -0.1211
vn 0.6039 -0.7568 -0.2501
vn 0.9155 -0.1341 0.3792
vn 0.9059 0.1965 0.3752
vn 0.6536 -0.7568 -0.0000
vn 0.8857 -0.4643 -0.0000
vn 0.8103 0.4804 0.3356
vn 0.6199 0.7415 0.2568
vn 0.3165 -0.9486 -0.0000
vn 0.3124 0.9411 0.1294
vn 0.7007 -0.1341 0.7007
vn 0.6933 0.1965 0.6933
vn 0.6039 -0.7568 0.2501
vn 0.8182 -0.4643 0.3389
vn 0.4744 0.7415 0.4744
vn 0.2391 0.9411 0.2391
vn 0.2924 -0.9486 0.1211
vn 0.6202 0.4804 0.6202
vn 0.3792 -0.1341 0.9155
vn 0.3752 0.1965 0.9059
vn 0.4622 -0.7568 0.4622
vn 0.6263 -0.4643 0.6263
vn 0.2568 0.7415 0.6199
vn 0.1294 0.9411 0.3124
vn 0.3356 0.4804 0.8103
vn 0.2238 -0.9486 0.2238
vn 0.2501 -0.7568 0.6039
vn 0.3389 -0.4643 0.8182
vn -0.0000 -0.1341 0.9910
vn -0.0000 0.1965 0.9805
vn -0.0000 0.7415 0.6710
vn -0.0000 0.9411 0.3381
vn 0.1211 -0.9486 0.2924
vn -0.0000 0.4804 0.8771
vn -0.0000 -0.7568 0.6536
vn -0.0000 -0.4643 0.8857
vn -0.3792 -0.1341 0.9155
vn -0.3752 0.1965 0.9059
vn -0.0000 -0.9486 0.3165
vn -0.3356 0.4804 0.8103
vn -0.2568 0.7415 0.6199
vn -0.1294 0.9411 0.3124
vn -0.2501 -0.7568 0.6039
vn -0.3389 -0.4643 0.8182
vn -0.7007 -0.1341 0.7007
vn -0.6933 0.1965 0.6933
vn -0.1211 -0.9486 0.2924
vn -0.6202 0.4804 0.6202
vn -0.4744 0.7415 0.4744
vn -0.2391 0.9411 0.2391
vn -0.6263 -0.4643 0.6263
vn -0.9155 -0.1341 0.3792
vn -0.9059 0.1965 0.3752
vn -0.4622 -0.7568 0.4622
vn -0.8103 0.4804 0.3356
vn -0.6199 0.7415 0.2568
vn -0.3124 0.9411 0.1294
vn -0.2238 -0.9486 0.2238
vn -0.8182 -0.4643 0.3389
vn -0.9910 -0.1341 -0.0000
vn -0.9805 0.1965 -0.0000
vn -0.6039 -0.7568 0.2501
vn -0.6710 0.7415 -0.0000
vn -0.3381 0.9411 -0.0000
vn -0.2924 -0.9486 0.1211
vn -0.8771 0.4804 -0.0000
vn -0.9155 -0.1341 -0.3792
vn -0.9059 0.1965 -0.3752
vn -0.6536 -0.7568 -0.0000
vn -0.8857 -0.4643 -0.0000
vn -0.6199 0.7415 -0.2568
vn -0.3124 0.9411 -0.1294
vn -0.8103 0.4804 -0.3356
vn -0.3165 -0.9486 -0.0000
vn -0.8182 -0.4643 -0.3389
vn -0.7007 -0.1341 -0.7007
vn -0.6933 0.1965 -0.6933
vn -0.6039 -0.7568 -0.2501
vn -0.4744 0.7415 -0.4744
vn -0.2391 0.9411 -0.2391
vn -0.2924 -0.9486 -0.1211
vn -0.6202 0.4804 -0.6202
vn -0.6263 -0.4643 -0.6263
vn -0.4622 -0.7568 -0.4622
vn -0.2568 0.7415 -0.6199
vn -0.1294 0.9411 -0.3124
vn -0.2238 -0.9486 -0.2238
vn -0.3356 0.4804 -0.8103
vn -0.1211 -0.9486 -0.2924
vn -0.3389 -0.4643 -0.8182
vn -0.2501 -0.7568 -0.6039
vn -0.0000 0.4804 -0.8771
vt 0.432738 0.489150
vt 0.437458 0.494846
vt 0.432237 0.501176
vt 0.427202 0.495782
vt 0.436994 0.506737
vt 0.442466 0.500194
vt 0.427293 0.506850
vt 0.431441 0.512147
vt 0.461923 0.488843
vt 0.456565 0.487660
vt 0.458669 0.476406
vt 0.460803 0.476349
vt 0.435151 0.518520
vt 0.441842 0.513234
vt 0.459087 0.469775
vt 0.456753 0.475674
vt 0.455149 0.474378
vt 0.416142 0.523211
vt 0.414930 0.521239
vt 0.421796 0.513267
vt 0.424797 0.517584
vt 0.416847 0.525555
vt 0.427104 0.522810
vt 0.452159 0.485266
vt 0.448567 0.481973
vt 0.448270 0.505875
vt 0.453077 0.497238
vt 0.447519 0.493169
vt 0.447466 0.521086
vt 0.455080 0.511875
vt 0.459923 0.500739
vt 0.454000 0.532149
vt 0.464810 0.519593
vt 0.438673 0.526927
vt 0.410617 0.526079
vt 0.469815 0.503396
vt 0.468377 0.488093
vt 0.462949 0.475369
vt 0.416856 0.528198
vt 0.428357 0.529270
vt 0.462548 0.549869
vt 0.480514 0.530190
vt 0.427968 0.537324
vt 0.441268 0.537814
vt 0.484419 0.503226
vt 0.475785 0.484383
vt 0.415969 0.530901
vt 0.464799 0.473400
vt 0.478634 0.591229
vt 0.513640 0.545639
vt 0.424553 0.546619
vt 0.441658 0.554920
vt 0.481877 0.474793
vt 0.465818 0.470404
vt 0.414049 0.533224
vt 0.509842 0.491775
vt 0.702805 0.326180
vt 0.949812 0.325778
vt 0.930811 0.713674
vt 0.696245 0.681446
vt 0.415463 0.555128
vt 0.432372 0.586110
vt 0.483507 0.461269
vt 0.465702 0.466985
vt 0.870752 1.064942
vt 0.673449 1.027687
vt 0.411177 0.534549
vt 0.402547 0.556163
vt 0.398857 0.592848
vt 0.696711 -0.007762
vt 0.917471 -0.027813
vt 0.513640 0.455241
vt 0.472132 0.324104
vt 0.471584 0.669256
vt 0.476857 0.449057
vt 0.464013 0.464031
vt 0.407873 0.534393
vt 0.470155 1.019502
vt 0.390636 0.548366
vt 0.368915 0.575787
vt 0.476909 -0.012076
vt 0.499090 0.423001
vt 0.242397 0.313320
vt 0.244186 0.670128
vt 0.405007 0.532229
vt 0.262803 1.031350
vt 0.466117 0.441660
vt 0.461413 0.462141
vt 0.384468 0.534348
vt 0.352754 0.541960
vt 0.257422 -0.017967
vt 0.470735 0.407152
vt -0.000653 0.293438
vt -0.001136 0.687873
vt 0.403388 0.528794
vt 0.052119 1.066221
vt 0.454425 0.443744
vt 0.458445 0.462064
vt 0.043919 -0.046276
vt 0.439400 0.412334
vt 0.389399 0.466242
vt 0.352970 0.447279
vt 0.393428 0.408376
vt 0.406776 0.446287
vt 0.386329 0.519808
vt 0.357273 0.502227
vt 0.429863 0.441235
vt 0.446208 0.450828
vt 0.455861 0.463279
vt 0.403343 0.525075
vt 0.384278 0.491151
vt 0.404713 0.476622
vt 0.415443 0.463561
vt 0.393461 0.510726
vt 0.442834 0.459156
vt 0.454147 0.465424
vt 0.404601 0.522030
vt 0.429673 0.458363
vt 0.414731 0.484300
vt 0.422243 0.474997
vt 0.401154 0.506495
vt 0.400533 0.491513
vt 0.442396 0.466593
vt 0.453324 0.467897
vt 0.431882 0.468925
vt 0.406599 0.519928
vt 0.410003 0.494232
vt 0.421665 0.490191
vt 0.427888 0.482887
vt 0.407981 0.506019
vt 0.443527 0.472820
vt 0.453303 0.470366
vt 0.408923 0.518958
vt 0.435191 0.477039
vt 0.416990 0.497952
vt 0.413553 0.507335
vt 0.445642 0.477897
vt 0.453960 0.472573
vt 0.411202 0.518997
vt 0.438836 0.483312
vt 0.413256 0.519767
vt 0.422591 0.502217
vt 0.418089 0.509819
vt 0.442878 0.488580
s 1
usemtl Material
f 123/1/1 3/2/2 4/3/3 124/4/4
f 10/5/5 4/3/3 3/2/2 9/6/6
f 5/7/7 4/3/3 10/5/5 11/8/8
f 24/9/9 15/10/10 14/11/11 23/12/12
f 19/13/13 11/8/8 10/5/5 18/14/14
f 22/15/15 6/16/16 128/17/17
f 13/18/18 130/19/19 129/20/20 12/21/21
f 12/21/21 129/20/20 5/7/7 11/8/8
f 22/15/15 14/11/11 6/16/16
f 21/22/22 13/18/18 12/21/21 20/23/23
f 128/17/17 6/16/16 7/24/24 1/25/25
f 18/14/14 10/5/5 9/6/6 17/26/26
f 16/27/27 8/28/28 7/24/24 15/10/10
f 27/29/29 18/14/14 17/26/26 26/30/30
f 25/31/31 16/27/27 15/10/10 24/9/9
f 35/32/32 27/29/29 26/30/30 34/33/33
f 28/34/34 19/13/13 18/14/14 27/29/29
f 87/35/35 13/18/18 21/22/22
f 33/36/36 25/31/31 24/9/9 32/37/37
f 32/37/37 24/9/9 23/12/12 31/38/38
f 30/39/39 21/22/22 20/23/23 29/40/40
f 34/33/33 26/30/30 25/31/31 33/36/36
f 29/40/40 20/23/23 19/13/13 28/34/34
f 22/15/15 23/12/12 14/11/11
f 43/41/41 35/32/32 34/33/33 42/42/42
f 37/43/43 29/40/40 28/34/34 36/44/44
f 36/44/44 28/34/34 27/29/29 35/32/32
f 41/45/45 33/36/36 32/37/37 40/46/46
f 38/47/47 30/39/39 29/40/40 37/43/43
f 42/42/42 34/33/33 33/36/36 41/45/45
f 40/46/46 32/37/37 31/38/38 39/48/48
f 22/15/15 31/38/38 23/12/12
f 87/35/35 21/22/22 30/39/39
f 51/49/49 43/41/41 42/42/42 50/50/50
f 45/51/51 37/43/43 36/44/44 44/52/52
f 44/52/52 36/44/44 35/32/32 43/41/41
f 48/53/53 40/46/46 39/48/48 47/54/54
f 46/55/55 38/47/47 37/43/43 45/51/51
f 50/50/50 42/42/42 41/45/45 49/56/56
f 22/15/15 39/48/48 31/38/38
f 87/35/35 30/39/39 38/47/47
f 59/57/57 51/58/49 50/59/50 58/60/58
f 53/61/59 45/51/51 44/52/52 52/62/60
f 52/62/60 44/52/52 43/41/41 51/49/49
f 49/56/56 41/45/45 40/46/46 48/53/53
f 56/63/61 48/53/53 47/54/54 55/64/62
f 58/60/58 50/59/50 49/65/56 57/66/63
f 22/15/15 47/54/54 39/48/48
f 54/67/64 46/55/55 45/51/51 53/61/59
f 87/35/35 38/47/47 46/55/55
f 61/68/65 53/61/59 52/62/60 60/69/66
f 60/70/66 52/71/60 51/58/49 59/57/57
f 57/72/63 49/56/56 48/53/53 56/63/61
f 67/73/67 59/57/57 58/60/58 66/74/68
f 64/75/69 56/63/61 55/64/62 63/76/70
f 22/15/15 55/64/62 47/54/54
f 62/77/71 54/67/64 53/61/59 61/68/65
f 66/74/68 58/60/58 57/66/63 65/78/72
f 87/35/35 46/55/55 54/67/64
f 69/79/73 61/68/65 60/69/66 68/80/74
f 68/81/74 60/70/66 59/57/57 67/73/67
f 65/82/72 57/72/63 56/63/61 64/75/69
f 75/83/75 67/73/67 66/74/68 74/84/76
f 70/85/77 62/77/71 61/68/65 69/79/73
f 22/15/15 63/76/70 55/64/62
f 74/84/76 66/74/68 65/78/72 73/86/78
f 87/35/35 54/67/64 62/77/71
f 72/87/79 64/75/69 63/76/70 71/88/80
f 77/89/81 69/79/73 68/80/74 76/90/82
f 76/91/82 68/81/74 67/73/67 75/83/75
f 73/92/78 65/82/72 64/75/69 72/87/79
f 83/93/83 75/83/75 74/84/76 82/94/84
f 78/95/85 70/85/77 69/79/73 77/89/81
f 82/94/84 74/84/76 73/86/78 81/96/86
f 87/35/35 62/77/71 70/85/77
f 22/15/15 71/88/80 63/76/70
f 80/97/87 72/87/79 71/88/80 79/98/88
f 84/99/89 76/91/82 75/83/75 83/93/83
f 81/100/86 73/92/78 72/87/79 80/97/87
f 92/101/90 83/102/83 82/103/84 91/104/91
f 85/105/92 77/89/81 76/90/82 84/106/89
f 91/104/91 82/103/84 81/100/86 90/107/93
f 87/35/35 70/85/77 78/95/85
f 22/15/15 79/98/88 71/88/80
f 89/108/94 80/97/87 79/98/88 88/109/95
f 86/110/96 78/95/85 77/89/81 85/105/92
f 93/111/97 84/106/89 83/102/83 92/101/90
f 90/107/93 81/100/86 80/97/87 89/108/94
f 100/112/98 92/101/90 91/104/91 99/113/99
f 94/114/100 85/105/92 84/106/89 93/111/97
f 22/15/15 88/109/95 79/98/88
f 87/35/35 78/95/85 86/110/96
f 97/115/101 89/108/94 88/109/95 96/116/102
f 95/117/103 86/110/96 85/105/92 94/114/100
f 99/113/99 91/104/91 90/107/93 98/118/104
f 98/118/104 90/107/93 89/108/94 97/115/101
f 108/119/105 100/112/98 99/113/99 107/120/106
f 102/121/107 94/114/100 93/111/97 101/122/108
f 22/15/15 96/116/102 88/109/95
f 87/35/35 86/110/96 95/117/103
f 105/123/109 97/115/101 96/116/102 104/124/110
f 101/122/108 93/111/97 92/101/90 100/112/98
f 107/120/106 99/113/99 98/118/104 106/125/111
f 103/126/112 95/117/103 94/114/100 102/121/107
f 109/127/113 101/122/108 100/112/98 108/119/105
f 106/125/111 98/118/104 97/115/101 105/123/109
f 116/128/114 108/119/105 107/120/106 115/129/115
f 110/130/116 102/121/107 101/122/108 109/127/113
f 113/131/117 105/123/109 104/124/110 112/132/118
f 87/35/35 95/117/103 103/126/112
f 111/133/119 103/126/112 102/121/107 110/130/116
f 115/129/115 107/120/106 106/125/111 114/134/120
f 22/15/15 104/124/110 96/116/102
f 117/135/121 109/127/113 108/119/105 116/128/114
f 114/134/120 106/125/111 105/123/109 113/131/117
f 124/4/4 116/128/114 115/129/115 123/1/1
f 118/136/122 110/130/116 109/127/113 117/135/121
f 87/35/35 103/126/112 111/133/119
f 121/137/123 113/131/117 112/132/118 120/138/124
f 119/139/125 111/133/119 110/130/116 118/136/122
f 123/1/1 115/129/115 114/134/120 122/140/126
f 22/15/15 112/132/118 104/124/110
f 122/140/126 114/134/120 113/131/117 121/137/123
f 87/35/35 127/141/127 130/19/19
f 125/142/128 117/135/121 116/128/114 124/4/4
f 87/35/35 111/133/119 119/139/125
f 1/25/25 121/137/123 120/138/124 128/17/17
f 127/141/127 119/139/125 118/136/122 126/143/129
f 123/1/1 122/140/126 2/144/130 3/2/2
f 126/143/129 118/136/122 117/135/121 125/142/128
f 22/15/15 120/138/124 112/132/118
f 122/140/126 121/137/123 1/25/25 2/144/130
f 125/142/128 124/4/4 4/3/3 5/7/7
f 87/35/35 119/139/125 127/141/127
f 130/19/19 127/141/127 126/143/129 129/20/20
f 129/20/20 126/143/129 125/142/128 5/7/7
f 22/15/15 128/17/17 120/138/124
f 17/26/26 9/6/6 8/28/28 16/27/27
f 3/2/2 2/144/130 8/28/28 9/6/6
f 26/30/30 17/26/26 16/27/27 25/31/31
f 87/35/35 130/19/19 13/18/18
f 20/23/23 12/21/21 11/8/8 19/13/13
f 15/10/10 7/24/24 6/16/16 14/11/11
f 2/144/130 1/25/25 7/24/24 8/28/28
o Cube
v -0.023343 0.014092 0.011846
v -0.024261 0.015612 0.013761
v -0.022982 0.027913 0.001045
v -0.023901 0.029433 0.002960
v 0.006768 0.020573 0.021145
v 0.005850 0.022093 0.023059
v 0.007129 0.034394 0.010344
v 0.006210 0.035914 0.012259
v -0.007842 0.028282 0.007421
v -0.009067 0.030309 0.009974
v -0.008066 0.019697 0.014130
v -0.009290 0.021724 0.016683
v -0.025162 0.025411 0.001392
v -0.025229 0.022834 0.003406
v -0.023923 0.020552 0.005845
v -0.025363 0.017679 0.007434
v -0.025431 0.015102 0.009448
v -0.026655 0.017129 0.012001
v -0.026588 0.019706 0.009987
v -0.025147 0.022579 0.008398
v -0.026454 0.024861 0.005959
v -0.026387 0.027438 0.003945
v 0.009254 0.022568 0.020159
v 0.009321 0.025145 0.018145
v 0.008015 0.027427 0.015707
v 0.009456 0.030300 0.014117
v 0.009523 0.032877 0.012103
v 0.008298 0.034904 0.014656
v 0.008231 0.032327 0.016670
v 0.006790 0.029454 0.018260
v 0.008097 0.027172 0.020698
v 0.008029 0.024595 0.022712
v -0.009406 0.029553 0.011599
v -0.009445 0.028038 0.012783
v -0.009485 0.026523 0.013967
v -0.009524 0.025008 0.015151
v -0.009564 0.023493 0.016335
v -0.007569 0.026513 0.007770
v -0.007608 0.024998 0.008954
v -0.007648 0.023483 0.010138
v -0.007687 0.021968 0.011322
v -0.007727 0.020453 0.012506
v -0.016268 0.027799 0.003763
v -0.017786 0.018565 0.015116
v -0.017492 0.029826 0.006316
v -0.016561 0.016538 0.012563
v -0.017004 0.025421 0.004111
v -0.017055 0.023434 0.005664
v -0.016358 0.021608 0.007448
v -0.017159 0.019460 0.008769
v -0.017211 0.017472 0.010322
v -0.018841 0.028461 0.007940
v -0.018892 0.026474 0.009493
v -0.018195 0.024648 0.011277
v -0.018996 0.022500 0.012599
v -0.019048 0.020513 0.014152
v -0.000571 0.033468 0.011542
v 0.000360 0.020180 0.017788
v 0.000653 0.031441 0.008989
v -0.000865 0.022207 0.020341
v 0.000078 0.032534 0.013782
v 0.000027 0.030547 0.015335
v -0.000775 0.028398 0.016657
v -0.000077 0.026572 0.018441
v -0.000129 0.024585 0.019994
v 0.001915 0.029493 0.009953
v 0.001864 0.027506 0.011506
v 0.001062 0.025358 0.012827
v 0.001760 0.023532 0.014612
v 0.001708 0.021545 0.016165
vn 0.1920 0.6012 0.7757
vn 0.7907 -0.3897 -0.4722
vn 0.8712 -0.4081 -0.2728
vn 0.3479 0.4580 0.8181
vn -0.8190 0.5506 0.1614
vn -0.3582 0.9269 -0.1116
vn 0.0524 0.2474 -0.9675
vn -0.3077 -0.2956 -0.9044
vn 0.3582 -0.9269 0.1116
vn -0.0524 -0.2474 0.9675
vn -0.3588 -0.2278 0.9052
vn 0.1035 -0.9929 -0.0584
vn -0.2413 -0.2311 0.9425
vn 0.2098 -0.9777 0.0021
vn 0.1341 0.1795 -0.9746
vn -0.3282 0.9445 -0.0110
vn -0.0198 0.9998 -0.0071
vn 0.3908 0.3202 -0.8630
vn -0.3908 -0.3202 0.8630
vn -0.1341 -0.1795 0.9746
vn -0.3721 0.4382 0.8182
vn -0.8321 0.0503 0.5524
vn 0.8190 -0.5506 -0.1614
vn 0.3077 0.2956 0.9044
vn -0.3208 -0.7959 -0.5134
vn -0.3479 -0.4580 -0.8181
vn 0.2969 -0.5823 -0.7568
vn 0.3213 -0.7094 -0.6273
vn 0.0198 -0.9998 0.0071
vn 0.3282 -0.9445 0.0110
vn 0.3653 -0.7000 -0.6137
vn -0.1920 -0.6012 -0.7757
vn -0.3535 -0.6717 -0.6510
vn 0.2963 -0.6032 -0.7405
vn 0.3104 -0.5903 -0.7451
vn -0.3517 0.5821 0.7331
vn -0.3923 0.5727 0.7198
vn -0.4053 0.5798 0.7068
vn -0.3281 0.4477 0.8318
vn -0.3493 0.4246 0.8353
vn -0.2098 0.9777 -0.0021
vn -0.1035 0.9929 0.0584
vn -0.3653 0.7000 0.6137
vn -0.3417 0.7191 0.6052
vn 0.3417 -0.7191 -0.6052
vn 0.3588 0.2278 -0.9052
vn 0.2413 0.2311 -0.9425
vn 0.3493 -0.4246 -0.8353
vn 0.3281 -0.4477 -0.8318
vn 0.3517 -0.5821 -0.7331
vn -0.4058 0.5589 0.7232
vn -0.3213 0.7094 0.6273
vn -0.2969 0.5823 0.7568
vn -0.3104 0.5903 0.7451
vn -0.2963 0.6032 0.7405
vn -0.8768 0.1944 0.4399
vn 0.3535 0.6717 0.6510
vn 0.8768 -0.1944 -0.4399
vn -0.7907 0.3897 0.4722
vn -0.8712 0.4081 0.2728
vn 0.8321 -0.0503 -0.5524
vn 0.3721 -0.4382 -0.8182
vn 0.4053 -0.5798 -0.7068
vn 0.3923 -0.5727 -0.7198
vn 0.4058 -0.5589 -0.7232
vn 0.3208 0.7959 0.5134
vt 0.488464 0.922352
vt 0.488677 0.943390
vt 0.473529 0.942676
vt 0.477065 0.924488
vt 0.468959 0.802076
vt 0.464829 0.808340
vt 0.454952 0.802917
vt 0.460192 0.791555
vt 0.522772 0.924848
vt 0.513239 0.918455
vt 0.511497 0.898537
vt 0.529373 0.899094
vt 0.508539 0.865090
vt 0.527383 0.864257
vt 0.447015 0.900036
vt 0.463895 0.899247
vt 0.462988 0.919695
vt 0.452774 0.925577
vt 0.050788 0.048556
vt 0.243699 0.123511
vt 0.216237 0.248553
vt -0.013802 0.171862
vt 0.515597 0.937130
vt 0.506607 0.923577
vt -0.010702 0.844612
vt -0.012187 0.676244
vt 0.218098 0.632840
vt 0.218596 0.760437
vt 0.509620 0.830479
vt 0.508091 0.809982
vt 0.519920 0.801906
vt 0.526910 0.828710
vt 0.935814 0.951444
vt 0.742903 0.876488
vt 0.770365 0.751447
vt 1.000404 0.828138
vt 0.026187 0.507610
vt -0.013735 0.340253
vt 0.216916 0.376147
vt 0.239112 0.504141
vt 0.492844 0.400866
vt 0.493301 0.500000
vt 0.239112 0.504142
vt 0.216916 0.376147
vt 0.491901 0.196214
vt 0.739396 0.115435
vt 0.768007 0.239563
vt 0.492387 0.301597
vt 0.494701 0.803786
vt 0.247206 0.884565
vt 0.218596 0.760437
vt 0.494215 0.698404
vt 0.494701 0.803786
vt 0.247206 0.884565
vt 0.494215 0.698403
vt 0.447015 0.828903
vt 0.464779 0.830702
vt 0.466879 0.863950
vt 0.447824 0.864130
vt 0.243700 0.123511
vt 0.491901 0.196214
vt 0.492387 0.301596
vt 0.216237 0.248552
vt 0.492844 0.400865
vt 0.493301 0.500000
vt 0.493758 0.599134
vt 0.493758 0.599135
vt 0.218099 0.632840
vt 0.742903 0.876489
vt 0.770365 0.751447
vt 0.769686 0.623853
vt 0.747490 0.495859
vt 0.768503 0.367160
vt -0.013802 0.171862
vt -0.010702 0.844612
vt -0.012187 0.676244
vt 0.498727 0.925215
vt 0.502192 0.943213
vt 0.026187 0.507611
vt -0.013735 0.340253
vt 0.739396 0.115435
vt 0.931588 0.034206
vt 0.997304 0.155388
vt 0.768007 0.239563
vt 0.998789 0.323756
vt 0.768503 0.367160
vt 0.960415 0.492389
vt 0.747490 0.495858
vt 1.000337 0.659747
vt 0.769686 0.623853
vt 1.000337 0.659747
vt 1.000404 0.828138
vt 0.960415 0.492389
vt 0.998789 0.323756
vt 0.997304 0.155388
vt 0.055015 0.965794
vt 0.510002 0.789521
vt 0.502486 0.803548
vt 0.460229 0.937507
vt 0.469018 0.923685
vt 0.498256 0.786016
vt 0.494913 0.802952
vt 0.485334 0.784469
vt 0.484818 0.802468
vt 0.471493 0.785476
vt 0.475435 0.800894
vt 0.931588 0.034206
vt 0.050788 0.048556
vt 0.055015 0.965794
vt 0.935814 0.951444
s 1
usemtl Material.001
f 160/145/131 155/146/132 156/147/133 159/148/134
f 152/149/135 134/150/136 133/151/137 143/152/138
f 135/153/139 136/154/140 190/155/141 188/156/142
f 188/156/142 190/155/141 142/157/143 141/158/144
f 189/159/145 187/160/146 138/161/147 137/162/148
f 132/163/149 174/164/150 186/165/151 148/166/152
f 153/167/153 162/168/154 136/154/140 135/153/139
f 147/169/155 146/170/156 180/171/157 181/172/158
f 174/173/150 132/174/149 131/175/159 176/176/160
f 135/177/139 188/178/142 200/179/161 153/180/153
f 145/181/162 144/182/163 178/183/164 179/184/165
f 166/185/166 165/186/166 184/187/167 185/188/168
f 142/189/143 190/190/141 195/191/169 167/192/170
f 140/193/171 175/194/172 182/195/173 163/196/174
f 141/197/144 176/198/160 181/172/158 172/199/175
f 173/200/176 175/201/172 140/202/171 139/203/177
f 133/151/137 134/150/136 175/201/172 173/200/176
f 173/204/176 139/205/177 168/206/178 177/207/179
f 177/207/179 168/206/178 169/208/180 178/183/164
f 178/183/164 169/208/180 170/209/180 179/184/165
f 179/184/165 170/209/180 171/210/180 180/171/157
f 180/171/157 171/210/180 172/199/175 181/172/158
f 165/186/166 164/211/166 183/212/181 184/187/167
f 187/213/146 140/193/171 163/196/174 191/214/182
f 191/214/182 163/196/174 164/211/166 192/215/183
f 192/215/183 164/211/166 165/186/166 193/216/184
f 193/216/184 165/186/166 166/185/166 194/217/185
f 194/217/185 166/185/166 167/192/170 195/191/169
f 164/211/166 163/196/174 182/195/173 183/212/181
f 144/182/163 143/218/138 177/207/179 178/183/164
f 182/195/173 152/219/135 151/220/186 183/212/181
f 161/221/187 162/168/154 153/167/153 154/222/188
f 183/212/181 151/220/186 150/223/189 184/187/167
f 184/187/167 150/223/189 149/224/190 185/188/168
f 185/188/168 149/224/190 148/166/152 186/165/151
f 142/189/143 167/192/170 186/165/151 174/164/150
f 189/225/145 137/226/148 157/227/191 196/228/192
f 196/228/192 157/227/191 156/229/133 197/230/193
f 197/230/193 156/229/133 155/231/132 198/232/194
f 198/232/194 155/231/132 154/233/188 199/234/195
f 159/235/134 158/236/196 191/214/182 192/215/183
f 199/234/195 154/233/188 153/180/153 200/179/161
f 161/221/187 154/222/188 155/146/132 160/145/131
f 160/237/131 159/235/134 192/215/183 193/216/184
f 161/238/187 160/237/131 193/216/184 194/217/185
f 162/239/154 161/238/187 194/217/185 195/191/169
f 131/240/159 147/169/155 181/172/158 176/198/160
f 147/241/155 131/175/159 132/174/149 148/242/152
f 157/243/191 137/162/148 138/161/147 158/244/196
f 146/245/156 147/241/155 148/242/152 149/246/190
f 146/170/156 145/181/162 179/184/165 180/171/157
f 145/247/162 146/245/156 149/246/190 150/248/189
f 144/249/163 145/247/162 150/248/189 151/250/186
f 169/208/180 168/206/178 196/228/192 197/230/193
f 143/152/138 144/249/163 151/250/186 152/149/135
f 141/197/144 172/199/175 200/179/161 188/178/142
f 136/251/140 162/239/154 195/191/169 190/190/141
f 170/209/180 169/208/180 197/230/193 198/232/194
f 133/252/137 173/204/176 177/207/179 143/218/138
f 140/202/171 187/160/146 189/159/145 139/203/177
f 142/157/143 174/173/150 176/176/160 141/158/144
f 175/194/172 134/253/136 152/219/135 182/195/173
f 139/205/177 189/225/145 196/228/192 168/206/178
f 138/254/147 187/213/146 191/214/182 158/236/196
f 171/210/180 170/209/180 198/232/194 199/234/195
f 159/148/134 156/147/133 157/243/191 158/244/196
f 167/192/170 166/185/166 185/188/168 186/165/151
f 172/199/175 171/210/180 199/234/195 200/179/161
